<?xml version="1.0" standalone="no"?>
<!DOCTYPE svg PUBLIC "-//W3C//DTD SVG 20010904//EN"
 "http://www.w3.org/TR/2001/REC-SVG-20010904/DTD/svg10.dtd">
<svg version="1.0" xmlns="http://www.w3.org/2000/svg"
 width="1200.000000pt" height="1280.000000pt" viewBox="0 0 1200.000000 1280.000000"
 preserveAspectRatio="xMidYMid meet">
<g transform="translate(0.000000,1280.000000) scale(0.100000,-0.100000)"
fill="#000000" stroke="none">
<path d="M2290 12776 c-165 -43 -291 -118 -437 -260 -66 -63 -112 -123 -222
-290 -481 -732 -844 -1479 -1121 -2306 -272 -812 -432 -1613 -480 -2405 -6
-99 -15 -235 -20 -303 -12 -154 -13 -402 -1 -552 6 -63 14 -209 20 -325 6
-115 15 -298 21 -405 29 -569 162 -1084 434 -1677 31 -68 65 -146 77 -175 51
-130 151 -350 250 -548 756 -1512 1875 -2615 3159 -3115 178 -70 593 -205 761
-249 443 -116 1107 -189 1424 -157 61 6 189 18 285 26 530 48 1053 176 1570
385 1149 464 2155 1369 2897 2605 349 581 669 1311 869 1977 74 250 155 806
188 1298 44 646 44 656 16 1120 -39 652 -95 1080 -211 1605 -103 464 -272
1025 -435 1435 -183 466 -465 1006 -879 1690 -62 102 -129 219 -150 260 -103
206 -255 316 -507 367 -135 27 -164 26 -333 -8 -188 -38 -329 -112 -450 -233
-91 -91 -142 -179 -169 -287 -18 -73 -21 -202 -6 -267 6 -24 74 -190 151 -370
490 -1136 514 -1195 665 -1629 263 -760 399 -1380 471 -2148 25 -269 25 -1010
0 -1270 -52 -528 -145 -985 -292 -1430 -179 -543 -374 -941 -696 -1420 -255
-380 -493 -651 -809 -920 -857 -733 -1933 -1066 -2922 -904 -1209 197 -2326
1132 -3014 2522 -821 1660 -782 3849 112 6093 123 310 205 495 237 538 13 17
51 78 85 136 198 345 304 732 273 997 -39 328 -214 514 -570 602 -103 26 -133
25 -241 -3z m8861 -5013 c6 -16 16 -63 22 -107 10 -70 10 -79 -5 -90 -19 -14
-182 -41 -196 -32 -18 11 -48 193 -35 213 7 10 133 39 186 42 10 1 22 -10 28
-26z m-10181 -96 l75 -12 2 -50 c2 -27 -3 -77 -10 -110 l-12 -60 -75 3 c-41 1
-88 6 -105 11 l-30 8 1 74 c1 42 7 92 13 112 14 42 19 43 141 24z m10081
-1808 c38 -7 74 -18 81 -26 9 -11 9 -32 0 -87 -16 -104 -26 -126 -57 -126 -53
0 -165 23 -176 36 -12 15 1 137 20 188 12 30 27 32 132 15z m-9947 -121 c23
-55 39 -168 26 -183 -14 -17 -189 -50 -202 -37 -20 20 -53 189 -40 208 7 12
126 41 175 43 23 1 31 -5 41 -31z m9310 -1698 c53 -24 86 -45 86 -54 0 -26
-49 -139 -73 -170 l-24 -29 -89 41 c-49 23 -90 48 -92 56 -6 29 76 196 97 196
5 0 48 -18 95 -40z m-8615 -131 c23 -45 41 -91 41 -103 0 -17 -18 -30 -85 -64
-46 -23 -91 -39 -99 -36 -17 7 -84 139 -88 174 -3 22 7 30 77 67 44 23 88 42
97 43 11 0 30 -27 57 -81z m7661 -1377 l64 -59 -19 -29 c-32 -49 -117 -134
-134 -134 -9 0 -47 28 -85 63 -83 75 -82 78 8 173 73 76 66 77 166 -14z
m-6663 -54 c94 -97 94 -94 14 -172 -38 -36 -76 -66 -84 -66 -18 0 -147 135
-147 154 0 14 132 146 147 146 5 0 36 -28 70 -62z"/>
</g>
</svg>
